<svg id="Layer_1" data-name="Layer 1" xmlns="http://www.w3.org/2000/svg" viewBox="0 0 512 512"><defs><style>.cls-1{fill:none;stroke:#f7924a;stroke-linecap:round;stroke-linejoin:round;stroke-width:16px;}</style></defs><title>About</title><path class="cls-1" d="M412,256A156,156,0,1,1,256,100,155.75,155.75,0,0,1,412,256Z"/><ellipse class="cls-1" cx="256.07" cy="228.51" rx="48.38" ry="52.89"/><path class="cls-1" d="M351.84,375.58v3.52a156,156,0,0,1-191.68,0v-3.52a81.24,81.24,0,0,1,47.26-73.81,25,25,0,0,1,20.51.36,69.19,69.19,0,0,0,56.14,0,25,25,0,0,1,20.51-.36A81.24,81.24,0,0,1,351.84,375.58Z"/></svg>