<svg id="Layer_1" data-name="Layer 1" xmlns="http://www.w3.org/2000/svg" viewBox="0 0 512 512"><defs><style>.cls-1{fill:none;stroke:#f7924a;stroke-linecap:round;stroke-linejoin:round;stroke-width:16px;}.cls-2{fill:#f7924a;}</style></defs><title>Backend development</title><path class="cls-1" d="M225.89,359.42H96a23.14,23.14,0,0,1-23.15-23.15V123.15A23.15,23.15,0,0,1,96,100H392.25a23.15,23.15,0,0,1,23.15,23.15v43.21"/><line class="cls-1" x1="72.84" y1="154.16" x2="415.4" y2="154.16"/><line class="cls-1" x1="111.35" y1="127.38" x2="111.35" y2="127.38"/><line class="cls-1" x1="131.72" y1="127.38" x2="131.72" y2="127.38"/><line class="cls-1" x1="152.09" y1="127.38" x2="152.09" y2="127.38"/><path class="cls-1" d="M420.32,381.74a18.84,18.84,0,0,0,18.83-18.84V338.77a18.83,18.83,0,0,0-18.83-18.83H284.72a18.81,18.81,0,0,0-18.83,18.81V362.9a18.83,18.83,0,0,0,18.83,18.84Z"/><path class="cls-2" d="M398.64,338.89a12,12,0,1,0,11.95,11.95,11.95,11.95,0,0,0-11.95-11.95Z"/><path class="cls-2" d="M398.64,338.89a12,12,0,1,0,11.95,11.95,11.95,11.95,0,0,0-11.95-11.95Z"/><path class="cls-1" d="M439.16,277v24.14q0,.69-.06,1.35v.16a18.83,18.83,0,0,1-18.77,17.31H284.72a18.83,18.83,0,0,1-18.84-18.84V277a18.83,18.83,0,0,1,18.84-18.83H420.33a18.84,18.84,0,0,1,18.24,14.17.22.22,0,0,1,0,.1A18.5,18.5,0,0,1,439.16,277Z"/><path class="cls-2" d="M398.64,277.09a11.95,11.95,0,1,0,11.95,12,11.95,11.95,0,0,0-11.95-12Z"/><path class="cls-2" d="M398.64,277.09a11.95,11.95,0,1,0,11.95,12,11.95,11.95,0,0,0-11.95-12Z"/><path class="cls-2" d="M398.63,215.3a11.95,11.95,0,1,0,11.95,11.95,11.95,11.95,0,0,0-11.95-11.95Z"/><path class="cls-2" d="M398.63,215.3a11.95,11.95,0,1,0,11.95,11.95,11.95,11.95,0,0,0-11.95-11.95Z"/><path class="cls-1" d="M439.16,215.18v24.14c0,.47,0,.91-.06,1.36v.16a18.83,18.83,0,0,1-18.77,17.31H284.72a18.84,18.84,0,0,1-18.84-18.85V215.18a18.83,18.83,0,0,1,18.84-18.82H420.33a18.84,18.84,0,0,1,18.24,14.17.22.22,0,0,1,0,.1A18.42,18.42,0,0,1,439.16,215.18Z"/><line class="cls-1" x1="352.08" y1="401.13" x2="352.08" y2="381.74"/><polyline class="cls-1" points="302.08 412 341.21 412 362.95 412 402.08 412"/><path class="cls-1" d="M341.21,412A10.87,10.87,0,0,1,363,412"/><line class="cls-1" x1="300.21" y1="220.97" x2="300.21" y2="233.54"/><line class="cls-1" x1="325.57" y1="220.97" x2="325.57" y2="233.54"/><line class="cls-1" x1="350.93" y1="220.97" x2="350.93" y2="233.54"/><line class="cls-1" x1="300.21" y1="282.75" x2="300.21" y2="295.33"/><line class="cls-1" x1="325.57" y1="282.75" x2="325.57" y2="295.33"/><line class="cls-1" x1="350.93" y1="282.75" x2="350.93" y2="295.33"/><line class="cls-1" x1="300.21" y1="344.55" x2="300.21" y2="357.13"/><line class="cls-1" x1="325.57" y1="344.55" x2="325.57" y2="357.13"/><line class="cls-1" x1="350.93" y1="344.55" x2="350.93" y2="357.13"/><polyline class="cls-1" points="133.89 282.22 102.58 256.79 133.89 231.36"/><polyline class="cls-1" points="204.84 231.36 236.15 256.79 204.84 282.22"/><line class="cls-1" x1="180.64" y1="210.53" x2="158.09" y2="303.05"/></svg>