<svg id="Layer_1" data-name="Layer 1" xmlns="http://www.w3.org/2000/svg" viewBox="0 0 512 512"><defs><style>.cls-1{fill:none;stroke:#f7924a;stroke-linecap:round;stroke-linejoin:round;stroke-width:16px;}</style></defs><title>Contact</title><path class="cls-1" d="M410.65,323.39a7.91,7.91,0,0,0-6.74-7.64l-92.15-14.83a8.54,8.54,0,0,0-6.06,1.52l-27.18,20.95a13.53,13.53,0,0,1-14.88.95,205.41,205.41,0,0,1-43.24-32.51,205.71,205.71,0,0,1-32.52-43.24A13.54,13.54,0,0,1,189,233.54l20.61-27.07a8.56,8.56,0,0,0,1.57-6.18l-14.71-92.15a7.92,7.92,0,0,0-7.75-6.74L124.6,100a24.77,24.77,0,0,0-24.66,24.65C100.19,283.29,228.76,411.81,387.4,412a24.77,24.77,0,0,0,24.66-24.65Z"/><path class="cls-1" d="M267.89,164a80.21,80.21,0,0,1,80.2,80.21"/><path class="cls-1" d="M267.89,121.88A122.33,122.33,0,0,1,390.21,244.21"/></svg>