<svg id="Layer_1" data-name="Layer 1" xmlns="http://www.w3.org/2000/svg" viewBox="0 0 512 512"><defs><style>.cls-1{fill:none;stroke:#f7924a;stroke-linecap:round;stroke-linejoin:round;stroke-width:16px;}</style></defs><title>Continued education</title><ellipse class="cls-1" cx="249.06" cy="178.75" rx="39.27" ry="42.94"/><path class="cls-1" d="M179.11,266.8a66.2,66.2,0,0,1,30.45-28.58,20.32,20.32,0,0,1,16.65.3,56.18,56.18,0,0,0,45.58,0,20.32,20.32,0,0,1,16.65-.3,66.2,66.2,0,0,1,30.45,28.58"/><rect class="cls-1" x="236.8" y="282.99" width="24.39" height="83.19" rx="11.66"/><polyline class="cls-1" points="255.04 284.45 334.48 262.49 334.48 338.59 255.31 364.57"/><polyline class="cls-1" points="242.96 284.45 163.52 262.49 163.52 338.59 242.69 364.57"/><path class="cls-1" d="M329.54,393.51A156,156,0,0,1,145.7,145.7"/><path class="cls-1" d="M182.46,118.49A156,156,0,0,1,366.3,366.3"/><polyline class="cls-1" points="108.95 145.67 145.67 145.67 145.67 182.39"/><polyline class="cls-1" points="403.05 366.33 366.33 366.33 366.33 329.61"/></svg>