<svg id="Layer_1" data-name="Layer 1" xmlns="http://www.w3.org/2000/svg" viewBox="0 0 512 512"><defs><style>.cls-1{fill:none;stroke:#f7924a;stroke-linecap:round;stroke-linejoin:round;stroke-width:16px;}.cls-2{fill:#f7924a;}</style></defs><title>Database</title><ellipse class="cls-1" cx="256" cy="150.16" rx="137.22" ry="50.16"/><path class="cls-1" d="M393.22,220.72c0,27.7-61.44,50.16-137.22,50.16s-137.22-22.46-137.22-50.16"/><path class="cls-1" d="M393.22,291.28c0,27.7-61.44,50.16-137.22,50.16S118.78,319,118.78,291.28"/><path class="cls-1" d="M118.78,150.16V361.84c0,27.7,61.44,50.16,137.22,50.16s137.22-22.46,137.22-50.16V150.16"/><circle class="cls-2" cx="360.48" cy="217.95" r="5.57"/><circle class="cls-2" cx="360.48" cy="288.23" r="5.57"/><circle class="cls-2" cx="360.48" cy="358.5" r="5.57"/><circle class="cls-2" cx="339.58" cy="224.92" r="5.57"/><circle class="cls-2" cx="339.58" cy="295.19" r="5.57"/><circle class="cls-2" cx="339.58" cy="365.47" r="5.57"/><circle class="cls-2" cx="318.69" cy="229.79" r="5.57"/><circle class="cls-2" cx="318.69" cy="300.07" r="5.57"/><circle class="cls-2" cx="318.69" cy="370.34" r="5.57"/></svg>