<svg id="Layer_1" data-name="Layer 1" xmlns="http://www.w3.org/2000/svg" viewBox="0 0 512 512"><defs><style>.cls-1{fill:none;stroke:#f7924a;stroke-linecap:round;stroke-linejoin:round;stroke-width:16.71px;}</style></defs><title>Frontend Integration</title><path class="cls-1" d="M317.4,368.49H444.25V126.27A26.27,26.27,0,0,0,418,100H94a26.27,26.27,0,0,0-26.27,26.27V368.49H194.6"/><path class="cls-1" d="M317.4,368.49H469.49a10.07,10.07,0,0,1,10.07,10.07A33.44,33.44,0,0,1,446.11,412H65.89a33.44,33.44,0,0,1-33.45-33.44,10.07,10.07,0,0,1,10.07-10.07H194.6"/><path class="cls-1" d="M194.6,368.49a37.68,37.68,0,0,0,31.7,17.31h59.4a37.7,37.7,0,0,0,31.7-17.31"/><polyline class="cls-1" points="200.44 274.07 151.4 234.25 200.44 194.42"/><polyline class="cls-1" points="311.56 194.42 360.6 234.25 311.56 274.07"/><line class="cls-1" x1="273.66" y1="161.79" x2="238.34" y2="306.7"/></svg>