<svg id="Layer_1" data-name="Layer 1" xmlns="http://www.w3.org/2000/svg" viewBox="0 0 512 512"><defs><style>.cls-1{fill:none;stroke:#f7924a;stroke-linecap:round;stroke-linejoin:round;stroke-width:16px;}</style></defs><title>Home</title><path class="cls-1" d="M434.61,240.86,283.39,110.09a42.23,42.23,0,0,0-54.78,0L77.39,240.86"/><path class="cls-1" d="M401.87,212.55v161.1A38.35,38.35,0,0,1,363.52,412H319.21a17.13,17.13,0,0,1-17.13-17.13V308.36A17.13,17.13,0,0,0,285,291.23h-57.9a17.13,17.13,0,0,0-17.13,17.13v86.51A17.13,17.13,0,0,1,192.79,412H148.48a38.35,38.35,0,0,1-38.35-38.35V212.55"/></svg>