<svg id="Layer_1" data-name="Layer 1" xmlns="http://www.w3.org/2000/svg" viewBox="0 0 512 512"><defs><style>.cls-1{fill:none;stroke:#f7924a;stroke-linecap:round;stroke-linejoin:round;stroke-width:16px;}</style></defs><title>Projects</title><path class="cls-1" d="M422.47,412H89.53a26.36,26.36,0,0,1-26.36-26.36V126.36A26.36,26.36,0,0,1,89.53,100h86a26.34,26.34,0,0,1,22.68,12.92l5.06,8.53A26.35,26.35,0,0,0,226,134.38H422.47a26.36,26.36,0,0,1,26.36,26.36v224.9A26.36,26.36,0,0,1,422.47,412Z"/><line class="cls-1" x1="63.17" y1="199.78" x2="448.83" y2="199.78"/><line class="cls-1" x1="145.66" y1="274.27" x2="176.34" y2="274.27"/><line class="cls-1" x1="215.66" y1="274.27" x2="366.34" y2="274.27"/><line class="cls-1" x1="145.66" y1="337.51" x2="176.34" y2="337.51"/><line class="cls-1" x1="215.66" y1="337.51" x2="366.34" y2="337.51"/></svg>