<svg id="Layer_1" data-name="Layer 1" xmlns="http://www.w3.org/2000/svg" viewBox="0 0 512 512"><defs><style>.cls-1,.cls-2{fill:none;stroke:#f7924a;stroke-linecap:round;stroke-linejoin:round;stroke-width:17.29px;}.cls-2{stroke-dasharray:33.39 33.39;}</style></defs><title>Scalability</title><line class="cls-1" x1="236.41" y1="335.69" x2="253.7" y2="335.69"/><path class="cls-2" d="M287.09,335.69H396.48A15.52,15.52,0,0,0,412,320.17V115.52A15.52,15.52,0,0,0,396.48,100H191.83a15.52,15.52,0,0,0-15.52,15.52V241.61"/><line class="cls-1" x1="176.31" y1="258.3" x2="176.31" y2="275.59"/><path class="cls-1" d="M214.8,357.3v47.15a7.55,7.55,0,0,1-7.57,7.55H107.55a7.55,7.55,0,0,1-7.55-7.55V304.77a7.55,7.55,0,0,1,7.55-7.57H154.7"/><polyline class="cls-1" points="295.5 143.22 368.78 143.22 368.78 216.5"/><line class="cls-1" x1="368.78" y1="143.22" x2="138.38" y2="373.62"/></svg>