<svg id="Layer_1" data-name="Layer 1" xmlns="http://www.w3.org/2000/svg" viewBox="0 0 512 512"><defs><style>.cls-1{fill:none;stroke:#f7924a;stroke-linecap:round;stroke-linejoin:round;stroke-width:16px;}</style></defs><title>Security</title><path class="cls-1" d="M389.27,147.47C307.81,142.79,256,100,256,100s-51.81,42.79-133.27,47.47c0,0-33.54,201.13,133.27,264.53C422.81,348.6,389.27,147.47,389.27,147.47Z"/><path class="cls-1" d="M316.66,267.08c0,33.5-27.16,74.58-60.66,74.58s-60.66-41.08-60.66-74.58S222.5,220.35,256,220.35,316.66,233.57,316.66,267.08Z"/><path class="cls-1" d="M226.72,224.56V199.62a29.28,29.28,0,0,1,58.56,0v24.94"/><circle class="cls-1" cx="256" cy="283.64" r="9.93"/><line class="cls-1" x1="256" y1="293.57" x2="256" y2="309.22"/></svg>