<svg id="Layer_1" data-name="Layer 1" xmlns="http://www.w3.org/2000/svg" viewBox="0 0 512 512"><defs><style>.cls-1{fill:none;stroke:#f7924a;stroke-linecap:round;stroke-linejoin:round;stroke-width:16px;}.cls-2{fill:#f7924a;}</style></defs><title>Server</title><path class="cls-1" d="M322.56,382.29a18.49,18.49,0,0,0,18.49-18.49V340.11a18.49,18.49,0,0,0-18.49-18.48H189.45A18.48,18.48,0,0,0,171,340.11V363.8a18.48,18.48,0,0,0,18.49,18.49Z"/><path class="cls-2" d="M301.27,340.23A11.73,11.73,0,1,0,313,352a11.73,11.73,0,0,0-11.73-11.73Z"/><path class="cls-2" d="M301.27,340.23A11.73,11.73,0,1,0,313,352a11.73,11.73,0,0,0-11.73-11.73Z"/><path class="cls-1" d="M341.05,279.45v23.7c0,.46,0,.89-.06,1.33v.15a18.48,18.48,0,0,1-18.42,17H189.45a18.5,18.5,0,0,1-18.5-18.5V279.45A18.49,18.49,0,0,1,189.45,261H322.57a18.51,18.51,0,0,1,17.91,13.91.22.22,0,0,1,0,.1A18.3,18.3,0,0,1,341.05,279.45Z"/><path class="cls-2" d="M301.27,279.57A11.73,11.73,0,1,0,313,291.3a11.73,11.73,0,0,0-11.73-11.73Z"/><path class="cls-2" d="M301.27,279.57A11.73,11.73,0,1,0,313,291.3a11.73,11.73,0,0,0-11.73-11.73Z"/><path class="cls-2" d="M301.27,218.91A11.73,11.73,0,1,0,313,230.64a11.73,11.73,0,0,0-11.73-11.73Z"/><path class="cls-2" d="M301.27,218.91A11.73,11.73,0,1,0,313,230.64a11.73,11.73,0,0,0-11.73-11.73Z"/><path class="cls-1" d="M341.05,218.79v23.7c0,.46,0,.9-.06,1.33V244a18.48,18.48,0,0,1-18.42,17H189.45a18.5,18.5,0,0,1-18.5-18.5V218.79a18.49,18.49,0,0,1,18.5-18.48H322.57a18.5,18.5,0,0,1,17.91,13.92.16.16,0,0,1,0,.09A18.3,18.3,0,0,1,341.05,218.79Z"/><line class="cls-1" x1="255.57" y1="401.33" x2="255.57" y2="382.29"/><polyline class="cls-1" points="206.49 412 244.9 412 266.25 412 304.66 412"/><path class="cls-1" d="M244.9,412a10.67,10.67,0,0,1,21.34,0"/><path class="cls-1" d="M137.18,294.9a65.43,65.43,0,0,1,28.24-124.45,63.52,63.52,0,0,1,8.44.58,9.78,9.78,0,0,0,9.86-4.9,45.19,45.19,0,0,1,39.57-23.36,44.6,44.6,0,0,1,7.18.58,9.83,9.83,0,0,0,10.11-4.89,75.46,75.46,0,0,1,141.23,37v0a10,10,0,0,0,4,8.06,65.36,65.36,0,0,1-11,111.3"/><line class="cls-1" x1="204.66" y1="224.47" x2="204.66" y2="236.81"/><line class="cls-1" x1="229.55" y1="224.47" x2="229.55" y2="236.81"/><line class="cls-1" x1="254.44" y1="224.47" x2="254.44" y2="236.81"/><line class="cls-1" x1="204.66" y1="285.13" x2="204.66" y2="297.47"/><line class="cls-1" x1="229.55" y1="285.13" x2="229.55" y2="297.47"/><line class="cls-1" x1="254.44" y1="285.13" x2="254.44" y2="297.47"/><line class="cls-1" x1="204.66" y1="345.79" x2="204.66" y2="358.13"/><line class="cls-1" x1="229.55" y1="345.79" x2="229.55" y2="358.13"/><line class="cls-1" x1="254.44" y1="345.79" x2="254.44" y2="358.13"/></svg>