<svg id="Layer_1" data-name="Layer 1" xmlns="http://www.w3.org/2000/svg" viewBox="0 0 512 512"><defs><style>.cls-1{fill:none;stroke:#f7924a;stroke-linecap:round;stroke-linejoin:round;stroke-width:16px;}.cls-2{fill:#f7924a;}</style></defs><title>Showcase</title><rect class="cls-1" x="116.14" y="150.32" width="229.4" height="261.68" rx="16.82"/><path class="cls-1" d="M370.7,361.68H379a16.83,16.83,0,0,0,16.82-16.83v-228A16.83,16.83,0,0,0,379,100H183.28a16.83,16.83,0,0,0-16.82,16.82v8.34"/><line class="cls-1" x1="345.53" y1="210.53" x2="116.14" y2="210.53"/><polyline class="cls-1" points="192.35 172.91 182.09 190.46 172.08 177.81 162.07 190.46 151.81 172.91"/><polyline class="cls-1" points="251.11 172.91 240.85 190.46 230.84 177.81 220.82 190.46 210.56 172.91"/><polyline class="cls-1" points="309.87 172.91 299.61 190.46 289.6 177.81 279.58 190.46 269.32 172.91"/><rect class="cls-1" x="177.16" y="243.53" width="107.35" height="87.26" rx="7.89"/><polygon class="cls-2" points="244.81 280.5 228.95 294.79 216.55 286.47 195.19 312.85 266.48 312.85 244.81 280.5 244.81 280.5"/><path class="cls-2" d="M201.68,258.37a10.13,10.13,0,1,0,10.13,10.13,10.13,10.13,0,0,0-10.13-10.13Z"/><line class="cls-1" x1="177.16" y1="358.9" x2="284.51" y2="358.9"/><line class="cls-1" x1="177.16" y1="382.28" x2="284.51" y2="382.28"/></svg>