<svg id="Layer_1" data-name="Layer 1" xmlns="http://www.w3.org/2000/svg" viewBox="0 0 512 512"><defs><style>.cls-1{fill:none;stroke:#f7924a;stroke-linecap:round;stroke-linejoin:round;stroke-width:16px;}</style></defs><title>Web development</title><path class="cls-1" d="M433.94,349.61l-11.45-7.42a9.89,9.89,0,0,1-.31-16.41l11.17-7.84a11.41,11.41,0,0,0,3.18-15.3l-9.45-15.47A11.42,11.42,0,0,0,412,283l-10.19,5.38a9.9,9.9,0,0,1-14.5-8.13l-.73-11.5a11.42,11.42,0,0,0-11.39-10.7H357.07a11.42,11.42,0,0,0-11.4,10.7l-.86,13.61a9.9,9.9,0,0,1-14.17,8.3l-12.29-5.91a11.42,11.42,0,0,0-14.91,4.71l-8.87,15.81a11.41,11.41,0,0,0,3.76,15.17l11.45,7.41a9.91,9.91,0,0,1,.31,16.42l-11.17,7.84a11.41,11.41,0,0,0-3.19,15.3l9.45,15.47a11.43,11.43,0,0,0,15.07,4.15l10.2-5.38a9.89,9.89,0,0,1,14.49,8.13l.73,11.5a11.42,11.42,0,0,0,11.4,10.7H375.2a11.42,11.42,0,0,0,11.39-10.7l.87-13.61a9.9,9.9,0,0,1,14.16-8.3l12.3,5.91a11.42,11.42,0,0,0,14.91-4.71l8.86-15.81A11.41,11.41,0,0,0,433.94,349.61Z"/><circle class="cls-1" cx="366.13" cy="335.03" r="26.79"/><path class="cls-1" d="M265.89,359.42H96a23.14,23.14,0,0,1-23.15-23.15V123.15A23.15,23.15,0,0,1,96,100H392.25a23.15,23.15,0,0,1,23.15,23.15v126.3"/><line class="cls-1" x1="72.84" y1="154.16" x2="415.4" y2="154.16"/><line class="cls-1" x1="111.35" y1="127.38" x2="111.35" y2="127.38"/><line class="cls-1" x1="131.72" y1="127.38" x2="131.72" y2="127.38"/><line class="cls-1" x1="152.09" y1="127.38" x2="152.09" y2="127.38"/><polyline class="cls-1" points="208.12 271.07 178.22 246.79 208.12 222.51"/><polyline class="cls-1" points="275.86 222.51 305.76 246.79 275.86 271.07"/><line class="cls-1" x1="252.76" y1="202.62" x2="231.22" y2="290.96"/></svg>